<svg width="90" height="90" viewBox="0 0 90 90" fill="none" xmlns="http://www.w3.org/2000/svg">
<path d="M39.4566 45.3952L38.7042 47.707C38.521 48.2718 38.5211 48.88 38.7047 49.4446C38.8882 50.0092 39.2458 50.5013 39.7261 50.8503C40.2063 51.1993 40.7848 51.3874 41.3785 51.3876C41.9722 51.3878 42.5507 51.2001 43.0313 50.8514L45 49.4227L46.9688 50.8528C47.4471 51.2084 48.0272 51.4004 48.6232 51.4004C49.2192 51.4004 49.7993 51.2084 50.2777 50.8528C50.7627 50.508 51.1239 50.0161 51.3077 49.4501C51.4916 48.8841 51.4884 48.2739 51.2986 47.7098L50.5463 45.3966L52.515 43.9678C52.9961 43.6189 53.3543 43.1265 53.5382 42.5613C53.7221 41.9961 53.7222 41.3872 53.5386 40.8219C53.3549 40.2566 52.9968 39.7641 52.5158 39.415C52.0348 39.0658 51.4556 38.8781 50.8613 38.8786H48.427L47.6719 36.5625C47.4869 35.9998 47.1291 35.5099 46.6493 35.1625C46.1695 34.8152 45.5923 34.6282 45 34.6282C44.4077 34.6282 43.8305 34.8152 43.3507 35.1625C42.871 35.5099 42.5131 35.9998 42.3281 36.5625L41.5758 38.873H39.143C38.5482 38.872 37.9685 39.0596 37.4871 39.4088C37.0057 39.7581 36.6474 40.2509 36.4637 40.8165C36.2799 41.3821 36.2802 41.9914 36.4645 42.5569C36.6487 43.1223 37.0075 43.6148 37.4892 43.9636L39.4566 45.3952ZM41.5659 41.6897C42.1592 41.6892 42.7371 41.501 43.217 41.1522C43.6969 40.8034 44.0542 40.3118 44.2378 39.7477L45 37.4175V37.4344L45.7509 39.7491C45.9348 40.3129 46.2922 40.8043 46.7721 41.1528C47.252 41.5013 47.8297 41.6892 48.4228 41.6897H50.8528L48.8841 43.1198C48.4031 43.4687 48.0455 43.9615 47.8629 44.527C47.6804 45.0925 47.6825 45.7014 47.8688 46.2656L48.6197 48.5803L46.6509 47.1502C46.1703 46.8008 45.5914 46.6126 44.9972 46.6126C44.403 46.6126 43.8241 46.8008 43.3434 47.1502L41.3747 48.5789L42.1313 46.2656C42.316 45.7008 42.3166 45.0919 42.1328 44.5267C41.9491 43.9616 41.5905 43.4694 41.1089 43.1212L39.1402 41.6925L41.5659 41.6897Z" fill="white"/>
<path d="M29.5973 67.1217L35.4206 65.7816L38.3372 70.9987C38.4593 71.2171 38.6374 71.399 38.8532 71.5255C39.069 71.6521 39.3147 71.7188 39.5648 71.7187H39.6295C39.8905 71.7066 40.1429 71.6221 40.3585 71.4745C40.5741 71.327 40.7444 71.1223 40.8502 70.8834L45 61.5262L49.1498 70.882C49.2556 71.1209 49.4259 71.3256 49.6415 71.4731C49.8571 71.6207 50.1095 71.7052 50.3705 71.7173H50.4352C50.6853 71.7174 50.931 71.6507 51.1468 71.5241C51.3626 71.3976 51.5407 71.2157 51.6628 70.9973L54.5794 65.7802L60.4027 67.1203C60.6571 67.1789 60.9228 67.1655 61.17 67.0817C61.4173 66.9978 61.6363 66.8468 61.8025 66.6455C61.9688 66.4442 62.0757 66.2006 62.1114 65.9419C62.147 65.6833 62.11 65.4199 62.0044 65.1811L56.1909 52.0734C57.7774 49.9885 58.75 47.5019 58.9989 44.8938C59.2478 42.2858 58.7632 39.66 57.5997 37.3127C56.4362 34.9653 54.6401 32.9896 52.4139 31.6084C50.1877 30.2271 47.6199 29.4953 45 29.4953C42.3801 29.4953 39.8123 30.2271 37.5861 31.6084C35.3599 32.9896 33.5638 34.9653 32.4003 37.3127C31.2368 39.66 30.7522 42.2858 31.0011 44.8938C31.25 47.5019 32.2226 49.9885 33.8091 52.0734L27.9956 65.1811C27.89 65.4199 27.853 65.6833 27.8886 65.9419C27.9242 66.2006 28.0312 66.4442 28.1974 66.6455C28.3637 66.8468 28.5827 66.9978 28.83 67.0817C29.0772 67.1655 29.3429 67.1789 29.5973 67.1203V67.1217ZM58.2933 63.7467L54.1828 62.8003C53.8857 62.7296 53.5736 62.7581 53.2943 62.8816C53.0149 63.005 52.7837 63.2165 52.6359 63.4837L50.5772 67.1681L46.5342 58.0528L46.7677 57.5283C49.4731 57.1866 52.0199 56.0625 54.0956 54.2939L58.2933 63.7467ZM33.75 43.5937C33.75 41.3687 34.4098 39.1936 35.646 37.3436C36.8821 35.4935 38.6391 34.0516 40.6948 33.2001C42.7505 32.3486 45.0125 32.1258 47.1948 32.5599C49.377 32.994 51.3816 34.0655 52.9549 35.6388C54.5283 37.2121 55.5997 39.2167 56.0338 41.399C56.4679 43.5813 56.2451 45.8433 55.3936 47.8989C54.5422 49.9546 53.1002 51.7116 51.2502 52.9478C49.4001 54.1839 47.225 54.8437 45 54.8437C42.0173 54.8404 39.1578 53.6541 37.0487 51.545C34.9397 49.4359 33.7533 46.5764 33.75 43.5937ZM35.9002 54.2953C38.0892 56.1667 40.8026 57.3169 43.6697 57.5887L39.4186 67.1723L37.3598 63.488C37.211 63.2217 36.9796 63.011 36.7006 62.8877C36.4216 62.7645 36.11 62.7353 35.813 62.8045L31.7025 63.7509L35.9002 54.2953Z" fill="white"/>
<path d="M68.9062 18.2812H66.0938V21.0938H68.9062V18.2812Z" fill="white"/>
<path d="M18.2812 18.2812H15.4688V21.0938H18.2812V18.2812Z" fill="white"/>
<path d="M63.2812 18.2812H60.4688V21.0938H63.2812V18.2812Z" fill="white"/>
<path d="M74.5312 18.2812H71.7188V21.0938H74.5312V18.2812Z" fill="white"/>
<path d="M78.75 12.6562H11.25C10.877 12.6562 10.5194 12.8044 10.2556 13.0681C9.99191 13.3319 9.84375 13.6895 9.84375 14.0625V75.9375C9.84375 76.3105 9.99191 76.6681 10.2556 76.9319C10.5194 77.1956 10.877 77.3438 11.25 77.3438H78.75C79.123 77.3438 79.4806 77.1956 79.7444 76.9319C80.0081 76.6681 80.1562 76.3105 80.1562 75.9375V14.0625C80.1562 13.6895 80.0081 13.3319 79.7444 13.0681C79.4806 12.8044 79.123 12.6562 78.75 12.6562ZM77.3438 74.5312H12.6562V26.7188H77.3438V74.5312ZM77.3438 23.9062H12.6562V15.4688H77.3438V23.9062Z" fill="white"/>
</svg>
