<svg width="90" height="90" viewBox="0 0 90 90" fill="none" xmlns="http://www.w3.org/2000/svg">
<path d="M45.0806 90L44.5708 89.9183C23.0306 84.8352 7.99344 65.8308 7.99344 43.7001V12.7923L9.49378 12.7253C22.0024 12.1662 33.9624 7.99597 44.0797 0.666966L45.001 0L45.9223 0.666966C56.0428 7.99609 68.0018 12.1662 80.5063 12.7254L82.0066 12.7923V43.7012C82.0066 65.8319 66.9684 84.8361 45.4365 89.9174L45.0806 90ZM11.1345 15.7796V43.7002C11.1345 64.2696 25.0441 81.9476 44.9991 86.7911C64.9562 81.9455 78.8658 64.2688 78.8658 43.7002V15.7796C66.667 14.9629 55.0117 10.8648 45.001 3.86671C34.9927 10.8637 23.3384 14.9629 11.1345 15.7796Z" fill="white"/>
<path d="M45.0523 77.9962L44.6974 77.9366C28.9335 74.2185 17.919 60.3006 17.919 44.0918V21.4878L18.9189 21.4427C28.1315 21.0292 36.938 17.9593 44.3854 12.564L45 12.1191L45.6146 12.564C53.0661 17.9603 61.8715 21.03 71.0799 21.4427L72.0798 21.4878V44.0917C72.0798 60.2996 61.0653 74.2174 45.2952 77.9385L45.0523 77.9962ZM20.0131 23.4802V44.0927C20.0131 59.262 30.278 72.2961 44.999 75.857C59.7273 72.2867 69.9859 59.2564 69.9859 44.0927V23.4802C60.9827 22.8939 52.3793 19.8712 45 14.6979C37.626 19.8712 29.0206 22.8939 20.0131 23.4802Z" fill="white"/>
<path d="M52.0068 41.983V38.0829C52.0068 34.298 48.9461 31.2124 45.1885 31.2124H44.8115C41.0538 31.2124 37.9996 34.298 37.9996 38.0829V41.983H35.5088V59.1331H54.489V41.983H52.0068ZM40.6319 38.0818C40.6319 35.7627 42.5082 33.8749 44.8116 33.8749H45.1886C47.4974 33.8749 49.3661 35.7626 49.3661 38.0818V41.9821H40.6319V38.0818Z" fill="white"/>
</svg>
